<?xml version="1.0" encoding="utf-8"?>
<!-- Generator: Adobe Illustrator 16.0.0, SVG Export Plug-In . SVG Version: 6.00 Build 0)  -->
<!DOCTYPE svg PUBLIC "-//W3C//DTD SVG 1.1//EN" "http://www.w3.org/Graphics/SVG/1.1/DTD/svg11.dtd">
<svg version="1.1" xmlns="http://www.w3.org/2000/svg" xmlns:xlink="http://www.w3.org/1999/xlink" x="0px" y="0px" width="1224px"
	 height="1224px" viewBox="0 0 1224 1224" enable-background="new 0 0 1224 1224" xml:space="preserve">
<g id="Layer_1">
	<g>
		<g>
			<path fill="#FDFDFD" stroke="#020202" stroke-miterlimit="10" d="M1008.72,612.707c0,130.905-0.008,261.811,0.062,392.716
				c0.001,2.593-0.413,3.374-3.243,3.373c-261.811-0.081-523.621-0.083-785.431,0.008c-2.988,0.001-3.463-0.686-3.462-3.536
				c0.081-261.69,0.08-523.38,0.003-785.071c-0.001-2.799,0.393-3.565,3.434-3.563c261.69,0.093,523.38,0.093,785.071-0.001
				c3.134-0.001,3.643,0.761,3.641,3.72C1008.709,351.137,1008.72,481.923,1008.72,612.707z"/>
			<path fill-rule="evenodd" clip-rule="evenodd" fill="#FBFBFB" stroke="#020202" stroke-miterlimit="10" d="M507.278,807.743
				c37.053,0.164,69.375-1.479,101.464-6.446c28.338-4.387,55.927-11.269,81.823-24.104c42.407-21.019,76.925-51.475,106.409-88.064
				c23.621-29.312,43.396-61.234,63.251-93.104c1.047-1.681,1.021-3.348,0.92-5.164c-0.334-6.014-0.365-12.014,1.887-17.75
				c2.377-6.059,6.322-10.073,13.286-10.297c3.595-0.116,7.182-0.465,10.77-0.746c3.116-0.243,6.23-0.581,9.13-1.846
				c2.39-1.041,4.614-2.559,4.966-5.274c0.337-2.603-2.301-3.432-3.951-4.62c-5.407-3.894-11.77-5.909-17.764-8.636
				c-8.923-4.061-15.024-10.404-17.563-20.102c-1.301-4.968-2.488-10.027-4.977-14.615c-1.483-2.733-3.402-4.944-6.607-5.654
				c-2.381-0.527-4.041-0.175-4.944,2.611c-1.988,6.138-5.517,11.414-9.99,16.055c-8.816,9.147-19.619,15.396-31.021,20.545
				c-21.534,9.724-43.17,19.227-64.861,28.594c-46.416,20.044-93.537,38.103-142.844,49.894
				c-48.048,11.489-96.546,15.802-145.679,8.731c-22.237-3.199-43.734-8.98-63.071-20.977
				c-18.529-11.495-31.378-26.95-33.819-49.499c-0.296-2.736-0.877-5.448-1.42-8.152c-1.325-6.605-2.876-13.142-6.622-18.9
				c-2.777-4.27-3.947-4.28-6.807,0.035c-2.616,3.948-2.954,8.571-3.619,13.064c-0.68,4.596-1.93,9-4.983,12.547
				c-5.893,6.846-8.568,14.986-9.5,23.689c-4.039,37.727-6.773,75.515-3.829,113.477c1.415,18.233,4.39,36.16,10.567,53.495
				c7.464,20.945,21.244,35.516,42.149,43.37c8.453,3.175,17.054,5.77,25.894,7.49C434.216,804.852,472.995,807.012,507.278,807.743
				z M425.354,420.56c-4.674,0-9.361-0.221-14.021,0.042c-12.872,0.726-23.575,6.245-32.08,15.746
				c-7.101,7.933-5.368,14.994,4.34,19.31c7.081,3.148,14.625,4.617,22.219,5.806c17.422,2.728,35.07,3.834,52.402,7.201
				c8.613,1.674,17.146,3.675,24.663,8.539c4.622,2.992,7.317,7.042,7.429,12.769c0.087,4.461-0.089,8.873-0.902,13.251
				c-2.158,11.623-9.319,19.806-18.594,26.341c-11.501,8.104-22.513,16.745-32.056,27.145c-1.377,1.5-2.889,2.879-4.243,4.398
				c-7.51,8.424-17.437,12.904-27.584,17.067c-4.367,1.792-8.384,4.196-11.393,7.949c-1.092,1.363-3.086,3.023-2.091,4.586
				c1.132,1.778,3.287,0.166,4.85-0.386c6.075-2.141,11.1-6.128,16.404-9.618c4.413-2.904,8.797-5.889,14.111-6.941
				c6.407-1.27,8.839-0.228,12.379,5.178c2.928,4.47,4.801,4.897,8.981,1.711c2.551-1.944,4.977-1.969,7.651-0.397
				c3.478,2.044,6.137,4.958,8.728,7.956c6.424,7.436,11.931,15.622,18.997,22.546c7.783,7.625,16.955,10.156,27.414,8.079
				c6.544-1.3,12.365-4.103,15.396-10.604c1.902-4.081,0.902-11.608-2.211-13.446c-3.756-2.217-7.365-0.223-10.698,1.833
				c-0.204,0.126-0.414,0.247-0.604,0.391c-4.56,3.445-9.431,3.466-14.181,0.744c-14.131-8.095-23.351-20.173-27.264-35.904
				c-2.327-9.353,1.232-15.441,10.402-18.348c8.958-2.84,14.306-8.817,17.401-17.273c3.795-10.37,5.73-21.156,5.252-32.129
				c-0.413-9.476,3.328-15.804,11.535-20.092c4.018-2.1,8.188-4.069,11.539-7.252c4.147-3.94,3.323-8.574-1.917-10.815
				c-3.373-1.444-6.994-1.801-10.584-1.797c-9.648,0.012-17.663-3.87-24.828-9.95c-2.469-2.095-4.983-4.142-7.366-6.332
				c-9.088-8.354-19.629-13.538-31.901-15.396C443.773,421.082,434.612,420.114,425.354,420.56z M754.415,463.623
				c8.754,0.068,14.978-1.605,20.148-4.559c3.486-1.991,4.31-4.423,3.468-8.297c-3.572-16.433-13.311-28.291-27.374-36.682
				c-24.488-14.609-51.438-17.801-79.197-15.426c-19.591,1.676-37.337,9.387-54.181,19.185
				c-9.394,5.464-17.983,11.983-24.584,20.749c-9.48,12.589-7.951,25.803,4.013,36.022c5.331,4.554,11.634,7.587,17.513,11.287
				c2.633,1.656,4.642,1.471,7.208-0.045c8.363-4.938,16.827-9.708,25.539-14.021c26.008-12.872,52.996-18.769,81.919-11.975
				C737.52,461.889,746.285,463.4,754.415,463.623z M611.359,534.271c-2.976-0.109-7.159,0.164-11.064,1.967
				c-2.677,1.236-4.459,3.287-4.571,6.367c-0.11,3.003,1.66,4.908,4.138,6.213c1.373,0.722,2.809,1.379,4.286,1.84
				c5.031,1.57,10.17,2.824,15.127,4.593c9.562,3.414,12.224,11.673,6.647,20.321c-1.617,2.509-3.609,4.775-5.423,7.158
				c-3.398,4.468-3.643,9.144-1.202,14.171c1.107,2.28,2.578,3.172,5.086,2.928c7.926-0.774,13.456-5.123,16.736-12.001
				c6.399-13.417,6.342-27.098,0.342-40.683c-2.302-5.212-6.313-8.565-11.867-10.173
				C624.031,535.363,618.415,534.296,611.359,534.271z M583.063,565.046c-5.034-0.212-10.513,0.342-15.87,1.777
				c-5.144,1.377-10.054,3.297-13.635,7.519c-3.495,4.121-2.953,6.3,2.111,8.143c4.939,1.798,10.123,1.619,15.281,1.63
				c9.457,0.021,19.147-1.696,27.075,6.147c3.126,3.093,6.375,1.805,8.454-2.171c2.435-4.653,2.604-9.615,1.898-14.72
				c-0.353-2.556-1.569-4.067-3.984-4.963C597.664,565.915,590.719,564.914,583.063,565.046z M600.149,397.383
				c0.331-3.759,0.474-6.733,0.874-9.672c1.262-9.28,5.882-17.152,10.568-25.007c1.902-3.188,3.55-6.529,5.256-9.831
				c0.245-0.476,0.412-1.261,0.186-1.656c-0.459-0.797-1.268-0.348-1.92-0.098c-2.633,1.01-4.82,2.67-6.674,4.762
				c-6.848,7.729-9.581,17.059-10.157,27.099C598.02,387.562,597.844,392.248,600.149,397.383z M496.386,423.646
				c1.214-5.192,0.948-10.434,0.885-15.647c-0.093-7.66-0.385-15.317-2.925-22.676c-1.148-3.325-2.779-6.353-5.295-8.845
				c-1.146-1.136-2.654-1.393-3.962-0.642c-1.134,0.651-0.646,1.855-0.144,2.879c4.458,9.105,6.72,18.887,8.81,28.72
				C494.889,412.777,495.546,418.193,496.386,423.646z"/>
			<path fill-rule="evenodd" clip-rule="evenodd" fill="#1E1C20" stroke="#020202" stroke-miterlimit="10" d="M507.278,807.743
				c-34.283-0.731-73.062-2.892-111.357-10.351c-8.839-1.721-17.441-4.315-25.894-7.49c-20.905-7.854-34.686-22.425-42.149-43.37
				c-6.177-17.335-9.153-35.262-10.567-53.495c-2.944-37.962-0.21-75.75,3.829-113.477c0.932-8.703,3.608-16.843,9.5-23.689
				c3.054-3.547,4.303-7.952,4.983-12.547c0.665-4.493,1.003-9.116,3.619-13.064c2.859-4.315,4.03-4.305,6.807-0.035
				c3.746,5.758,5.297,12.295,6.622,18.9c0.542,2.704,1.124,5.416,1.42,8.152c2.441,22.549,15.29,38.003,33.819,49.499
				c19.336,11.997,40.834,17.778,63.071,20.977c49.132,7.07,97.631,2.758,145.679-8.731c49.307-11.791,96.428-29.85,142.844-49.894
				c21.691-9.367,43.327-18.87,64.861-28.594c11.402-5.15,22.205-11.398,31.021-20.545c4.474-4.642,8.002-9.917,9.99-16.055
				c0.903-2.786,2.563-3.139,4.944-2.611c3.205,0.71,5.124,2.92,6.607,5.654c2.488,4.588,3.676,9.647,4.977,14.615
				c2.539,9.698,8.641,16.042,17.563,20.102c5.994,2.727,12.356,4.742,17.764,8.636c1.65,1.188,4.288,2.017,3.951,4.62
				c-0.352,2.715-2.576,4.233-4.966,5.274c-2.899,1.265-6.014,1.603-9.13,1.846c-3.588,0.281-7.175,0.63-10.77,0.746
				c-6.964,0.225-10.909,4.238-13.286,10.297c-2.252,5.737-2.221,11.737-1.887,17.75c0.101,1.815,0.127,3.482-0.92,5.164
				c-19.855,31.87-39.63,63.792-63.251,93.104c-29.484,36.59-64.002,67.046-106.409,88.064
				c-25.896,12.835-53.484,19.717-81.823,24.104C576.652,806.264,544.331,807.907,507.278,807.743z M581.025,744.402
				c0.211-0.002,0.423-0.003,0.634-0.003c0,2.517-0.062,5.036,0.011,7.552c0.293,10.07,0.564,20.137,3.668,29.877
				c0.735,2.305,1.884,3.387,4.376,3.164c3.577-0.318,7.194-0.25,10.755-0.673c17.965-2.134,34.871-8.619,52.325-12.861
				c3.969-0.965,7.796-2.406,11.483-4.157c11.769-5.591,13.812-11.681,7.916-23.371c-0.324-0.643-0.603-1.315-1-1.91
				c-8.391-12.571-10.979-26.641-10.794-41.449c0.047-3.787-0.855-4.462-4.209-2.964c-23.48,10.48-47.85,18.452-72.456,25.75
				c-2.122,0.629-2.816,1.618-2.76,3.799C581.123,732.901,581.025,738.652,581.025,744.402z M677.781,700.514
				c0.118,8.701,1.508,15.842,3.928,22.816c3.232,9.314,8.075,17.948,11.448,27.186c1.236,3.388,2.395,3.199,5.034,1.433
				c17.453-11.682,33.997-24.614,51.003-36.909c3.879-2.805,7.376-6.095,10.528-9.761c4.2-4.882,5.126-10.142,2.512-16.019
				c-1.756-3.945-3.604-7.85-5.276-11.828c-2.269-5.394-3.483-10.96-2.341-16.854c0.21-1.084,1.337-2.39-0.001-3.289
				c-1.31-0.88-2.516,0.226-3.614,0.877c-6.196,3.676-12.6,6.953-19.104,10.041c-15.491,7.353-31.393,13.795-46.773,21.413
				C679.619,692.346,676.774,695.666,677.781,700.514z M758.054,593.356c0.116-5.19,0.104-5.234-4.712-3.92
				c-7.98,2.176-15.974,4.316-23.908,6.649c-21.656,6.363-42.929,13.716-63.034,24.168c-3.165,1.646-4.187,3.518-3.849,7.008
				c0.931,9.605,3.113,18.908,5.849,28.126c0.712,2.401,2.115,2.873,4.307,2.55c5.15-0.758,10.097-2.254,14.715-4.579
				c11.716-5.897,23.873-10.583,36.527-14.019C747.042,633.068,757.548,609.966,758.054,593.356z M581.823,682.23
				c14.31-0.771,28.395-2.853,42.366-5.847c6.807-1.458,13.577-3.052,19.833-6.215c5.8-2.933,8.025-7.081,7.146-13.497
				c-0.421-3.072-1.178-6.114-2.005-9.109c-1.373-4.962-3.165-9.819-4.305-14.83c-0.617-2.711-1.581-3.386-4.312-3.146
				c-24.39,2.141-47.712,9.203-71.264,15.221c-1.66,0.424-2.373,1.215-2.361,2.981c0.065,10.44-1.046,20.816-1.937,31.199
				c-0.23,2.688,0.75,3.346,3.192,3.277C572.723,682.142,577.274,682.23,581.823,682.23z M532.853,790.708
				c9.356-0.698,18.701-1.059,27.947-2.728c1.97-0.354,3.276-1.009,3.673-3.209c3.221-17.844,2.395-35.586-1.153-53.279
				c-0.394-1.964-1.278-2.497-3.289-1.881c-6.915,2.122-14.08,2.902-21.242,3.674c-10.487,1.13-21.044,1.799-31.15,5.288
				c-3.001,1.036-3.952,2.677-3.847,5.831c0.496,14.844,4.148,29.192,6.523,43.74c0.31,1.897,1.177,2.62,3.112,2.596
				C519.901,790.655,526.378,790.708,532.853,790.708z M774.987,594.847c-0.17,7.121-0.337,13.594,0.588,20.032
				c0.25,1.747,0.428,3.458,3.075,2.32c14.755-6.347,29.664-12.376,42.983-21.577c16.833-11.627,27.248-26.993,28.259-47.99
				c0.163-3.393-0.865-4.171-4.047-3.673c-9.716,1.521-18.755,4.89-27.392,9.483c-13.866,7.375-26.362,17.094-40.645,23.754
				c-1.423,0.665-1.704,1.83-1.796,3.228C775.688,585.449,775.304,590.468,774.987,594.847z M459.346,681.213
				c4.076,0,8.157-0.145,12.224,0.047c3.183,0.15,4.815-1.249,5.768-4.156c2.32-7.077,2.289-14.387,2.524-21.696
				c0.081-2.509-0.958-3.272-3.285-3.564c-7.015-0.878-14.009-1.936-21-2.996c-9.125-1.385-18.235-2.869-27.363-4.23
				c-1.408-0.21-3.41-0.996-3.832,1.328c-1.371,7.555-4.84,14.593-5.451,22.325c-0.482,6.104-0.419,6.31,5.314,8.321
				C435.608,680.579,447.438,681.314,459.346,681.213z M521.563,682.238c8.27,0,16.543-0.118,24.809,0.064
				c2.937,0.064,3.676-0.998,3.637-3.743c-0.131-9.107-0.046-18.217-0.051-27.326c-0.002-4.672-0.011-4.734-4.791-4.641
				c-14.923,0.292-29.452,3.809-44.209,5.465c-1.826,0.205-2.165,1.626-2.559,3.039c-2.164,7.757-3.279,15.706-4.474,23.648
				c-0.413,2.743,0.448,3.593,3.189,3.546C505.261,682.154,513.413,682.242,521.563,682.238z M465.649,741.437
				c-6.337,0.384-12.673,0.802-19.014,1.131c-1.735,0.09-2.397,0.655-1.874,2.448c3.024,10.349,5.676,20.837,11.201,30.251
				c6.161,10.498,15.181,16.119,27.536,15.553c9.132-0.418,9.204-0.571,8.023-9.493c-1.557-11.766-3.206-23.515-7.826-34.604
				c-0.964-2.314-2.421-3.681-4.853-4.279C474.488,741.369,470.094,741.155,465.649,741.437z M819.339,620.877
				c-10.259,5.913-20.895,9.602-30.756,15.001c-13.766,7.538-18.317,18.494-15.976,35.938c0.456,3.396,1.937,6.4,4.546,8.775
				c1.523,1.385,2.742,1.537,4.186-0.229c12.833-15.709,25.645-31.43,34.515-49.874
				C817.223,627.641,818.862,624.856,819.339,620.877z M405.097,643.341c0.196-1.26,0.15-2.642-0.991-3.808
				c-5.625-5.751-11.959-10.3-19.964-12.168c-3.231-0.756-5.1,0.096-6.101,3.528c-2.692,9.232-2.727,18.554-0.558,27.74
				c3.59,15.202,2.923,13.665,18.254,16.499c2.751,0.509,4.107-0.417,4.819-3.214C402.932,662.591,404.188,653.104,405.097,643.341z
				 M434.184,784.868c1.707,0.125,3.264,0.102,2.778-2.374c-2.243-11.421-4.742-22.746-9.902-33.319
				c-2.692-5.518-5.704-10.292-12.86-9.857c-0.457,0.028-0.932-0.204-1.395-0.327c-3.589-0.951-7.169-1.938-10.77-2.845
				c-2.057-0.518-2.729,0.323-1.962,2.288c0.957,2.456,1.825,4.954,2.923,7.347c4.808,10.472,9.794,20.878,10.094,32.733
				c0.036,1.408,0.726,2.157,2.091,2.485C421.471,782.506,427.678,784.407,434.184,784.868z M365.947,759.626
				c-0.72,0-1.443-0.044-2.158,0.011c-0.917,0.07-2.104-0.399-2.659,0.548c-0.698,1.191,0.509,1.963,1.103,2.78
				c2.393,3.292,5.683,5.492,9.313,7.147c6.614,3.015,13.733,4.188,20.819,5.447c2.635,0.468,2.109-1.187,1.664-2.601
				c-2.918-9.264-5.815-18.544-10.317-27.202c-2.84-5.462-6.333-10.464-11.053-14.501c-0.859-0.735-1.679-2.112-2.981-1.472
				c-1.076,0.528-0.685,1.93-0.72,2.981c-0.09,2.674,0.677,5.222,1.278,7.781c0.958,4.078,2.357,8.064,2.307,12.333
				C372.478,758.521,371.388,759.655,365.947,759.626z M361.637,630.216c0.103-7.905-0.32-13.265-2.177-18.416
				c-0.262-0.727-0.332-1.823-1.418-1.786c-0.832,0.027-0.987,0.954-1.281,1.581c-3.306,7.05-6.877,13.985-9.456,21.355
				c-1.67,4.773-2.977,9.626-2.669,14.758c0.36,5.995,3.621,10.086,9.237,11.975c2.211,0.745,3.31,0.355,3.807-2.062
				C359.709,647.747,361.462,637.846,361.637,630.216z M354.931,755.101c-3.107-14.21-7.968-27.666-16.841-39.396
				C341.568,729.755,344.448,744.063,354.931,755.101z M341.872,588.675c-2.665,4.005-3.963,8.06-5.229,12.122
				c-0.2,0.642-0.481,1.474,0.315,1.913c0.747,0.412,1.325-0.208,1.885-0.62C342.162,599.649,343.681,593.581,341.872,588.675z"/>
			<path fill-rule="evenodd" clip-rule="evenodd" fill="#1E1C20" stroke="#020202" stroke-miterlimit="10" d="M425.354,420.56
				c9.259-0.446,18.419,0.522,27.575,1.908c12.272,1.858,22.813,7.042,31.901,15.396c2.382,2.19,4.896,4.237,7.366,6.332
				c7.166,6.08,15.18,9.962,24.828,9.95c3.59-0.004,7.212,0.353,10.584,1.797c5.239,2.241,6.063,6.875,1.917,10.815
				c-3.351,3.184-7.521,5.153-11.539,7.252c-8.208,4.289-11.948,10.617-11.535,20.092c0.478,10.973-1.457,21.759-5.252,32.129
				c-3.095,8.456-8.442,14.433-17.401,17.273c-9.17,2.907-12.729,8.995-10.402,18.348c3.914,15.731,13.133,27.809,27.264,35.904
				c4.75,2.722,9.621,2.701,14.181-0.744c0.191-0.144,0.4-0.264,0.604-0.391c3.333-2.056,6.942-4.05,10.698-1.833
				c3.113,1.838,4.113,9.365,2.211,13.446c-3.031,6.501-8.852,9.304-15.396,10.604c-10.459,2.077-19.631-0.454-27.414-8.079
				c-7.066-6.924-12.573-15.11-18.997-22.546c-2.59-2.998-5.25-5.912-8.728-7.956c-2.674-1.571-5.101-1.547-7.651,0.397
				c-4.18,3.186-6.054,2.759-8.981-1.711c-3.541-5.406-5.972-6.448-12.379-5.178c-5.314,1.052-9.699,4.037-14.111,6.941
				c-5.304,3.49-10.329,7.477-16.404,9.618c-1.563,0.551-3.718,2.164-4.85,0.386c-0.996-1.563,0.999-3.223,2.091-4.586
				c3.008-3.752,7.025-6.156,11.393-7.949c10.148-4.163,20.075-8.643,27.584-17.067c1.354-1.52,2.866-2.898,4.243-4.398
				c9.543-10.4,20.555-19.041,32.056-27.145c9.275-6.536,16.436-14.718,18.594-26.341c0.813-4.378,0.989-8.79,0.902-13.251
				c-0.112-5.727-2.807-9.777-7.429-12.769c-7.517-4.864-16.05-6.865-24.663-8.539c-17.332-3.366-34.979-4.473-52.402-7.201
				c-7.594-1.189-15.139-2.658-22.219-5.806c-9.708-4.316-11.44-11.377-4.34-19.31c8.505-9.5,19.208-15.02,32.08-15.746
				C415.992,420.339,420.679,420.56,425.354,420.56z M430.41,440.244c-6.476-0.108-12.954-1.864-19.283,0.453
				C417.624,442.513,424.099,443.491,430.41,440.244z"/>
			<path fill-rule="evenodd" clip-rule="evenodd" fill="#1E1C20" stroke="#020202" stroke-miterlimit="10" d="M754.415,463.623
				c-8.13-0.222-16.896-1.734-25.528-3.762c-28.923-6.794-55.911-0.897-81.919,11.975c-8.712,4.312-17.176,9.083-25.539,14.021
				c-2.566,1.516-4.575,1.701-7.208,0.045c-5.879-3.7-12.182-6.733-17.513-11.287c-11.963-10.22-13.493-23.434-4.013-36.022
				c6.602-8.766,15.19-15.285,24.584-20.749c16.844-9.798,34.59-17.508,54.181-19.185c27.759-2.375,54.709,0.817,79.197,15.426
				c14.063,8.391,23.802,20.249,27.374,36.682c0.842,3.874,0.019,6.306-3.468,8.297C769.393,462.018,763.169,463.69,754.415,463.623
				z M671.003,437.683c-0.294-6.261-2.429-11.453-3.294-16.89c-0.403-2.538-1.501-2.789-3.674-2.189
				c-7.76,2.14-15.439,4.505-22.775,7.839c-13.132,5.968-24.625,13.937-32.071,26.743c-2.188,3.763-1.928,4.914,1.756,7.232
				c2.564,1.613,5.376,1.965,8.313,1.454c2.861-0.498,5.576-1.465,8.082-2.923c11.564-6.729,23.692-12.107,36.671-15.487
				c1.157-0.302,2.252-0.842,3.407-1.155C670.175,441.56,671.483,439.907,671.003,437.683z M754.374,445.071
				c1.692,0.364,2.531-0.022,2.036-2.008c-1.376-5.519-10.699-10.457-15.99-8.409c-1.261,0.487-2.514,1.149-2.765,2.55
				c-0.248,1.381,1.048,2.078,1.969,2.74C744.021,443.103,749.204,444.076,754.374,445.071z"/>
			<path fill-rule="evenodd" clip-rule="evenodd" fill="#1E1C20" stroke="#020202" stroke-miterlimit="10" d="M611.359,534.271
				c7.056,0.026,12.672,1.092,18.235,2.703c5.554,1.607,9.565,4.96,11.867,10.173c6,13.585,6.058,27.265-0.342,40.683
				c-3.28,6.878-8.811,11.227-16.736,12.001c-2.508,0.245-3.979-0.647-5.086-2.928c-2.44-5.028-2.196-9.703,1.202-14.171
				c1.813-2.383,3.806-4.649,5.423-7.158c5.576-8.647,2.914-16.907-6.647-20.321c-4.957-1.769-10.096-3.023-15.127-4.593
				c-1.478-0.461-2.913-1.118-4.286-1.84c-2.478-1.305-4.248-3.21-4.138-6.213c0.112-3.08,1.894-5.131,4.571-6.367
				C604.2,534.435,608.383,534.161,611.359,534.271z"/>
			<path fill-rule="evenodd" clip-rule="evenodd" fill="#1E1C20" stroke="#020202" stroke-miterlimit="10" d="M583.063,565.046
				c7.655-0.132,14.6,0.869,21.33,3.362c2.416,0.896,3.631,2.407,3.984,4.963c0.706,5.105,0.537,10.067-1.898,14.72
				c-2.08,3.976-5.328,5.264-8.454,2.171c-7.928-7.844-17.618-6.126-27.075-6.147c-5.158-0.012-10.341,0.167-15.281-1.63
				c-5.064-1.843-5.606-4.022-2.111-8.143c3.581-4.222,8.491-6.142,13.635-7.519C572.55,565.388,578.03,564.833,583.063,565.046z"/>
			<path fill-rule="evenodd" clip-rule="evenodd" fill="#1E1C20" stroke="#020202" stroke-miterlimit="10" d="M600.149,397.383
				c-2.306-5.135-2.13-9.82-1.867-14.402c0.576-10.04,3.309-19.371,10.157-27.099c1.854-2.092,4.042-3.752,6.674-4.762
				c0.652-0.25,1.461-0.7,1.92,0.098c0.227,0.395,0.06,1.18-0.186,1.656c-1.706,3.301-3.354,6.643-5.256,9.831
				c-4.687,7.855-9.307,15.728-10.568,25.007C600.624,390.65,600.48,393.624,600.149,397.383z"/>
			<path fill-rule="evenodd" clip-rule="evenodd" fill="#1E1C20" stroke="#020202" stroke-miterlimit="10" d="M496.386,423.646
				c-0.839-5.453-1.497-10.869-2.632-16.21c-2.089-9.833-4.351-19.614-8.81-28.72c-0.502-1.024-0.991-2.229,0.144-2.879
				c1.308-0.751,2.816-0.494,3.962,0.642c2.516,2.492,4.147,5.52,5.295,8.845c2.54,7.359,2.833,15.016,2.925,22.676
				C497.333,413.212,497.6,418.454,496.386,423.646z"/>
			<path fill-rule="evenodd" clip-rule="evenodd" fill="#FBFBFB" stroke="#020202" stroke-miterlimit="10" d="M581.025,744.402
				c0-5.75,0.098-11.501-0.05-17.247c-0.056-2.181,0.638-3.17,2.76-3.799c24.606-7.298,48.976-15.27,72.456-25.75
				c3.354-1.498,4.256-0.823,4.209,2.964c-0.186,14.809,2.403,28.878,10.794,41.449c0.397,0.595,0.676,1.268,1,1.91
				c5.896,11.69,3.853,17.78-7.916,23.371c-3.688,1.751-7.515,3.192-11.483,4.157c-17.454,4.242-34.36,10.728-52.325,12.861
				c-3.562,0.423-7.179,0.354-10.755,0.673c-2.492,0.223-3.641-0.859-4.376-3.164c-3.104-9.74-3.375-19.807-3.668-29.877
				c-0.073-2.516-0.011-5.035-0.011-7.552C581.448,744.399,581.236,744.4,581.025,744.402z"/>
			<path fill-rule="evenodd" clip-rule="evenodd" fill="#FBFBFB" stroke="#020202" stroke-miterlimit="10" d="M677.781,700.514
				c-1.007-4.848,1.838-8.168,7.343-10.895c15.381-7.618,31.282-14.061,46.773-21.413c6.505-3.088,12.908-6.365,19.104-10.041
				c1.099-0.651,2.305-1.757,3.614-0.877c1.338,0.899,0.211,2.205,0.001,3.289c-1.143,5.895,0.072,11.461,2.341,16.854
				c1.673,3.979,3.521,7.883,5.276,11.828c2.614,5.877,1.688,11.137-2.512,16.019c-3.152,3.666-6.649,6.956-10.528,9.761
				c-17.006,12.295-33.55,25.228-51.003,36.909c-2.64,1.767-3.798,1.955-5.034-1.433c-3.373-9.237-8.216-17.871-11.448-27.186
				C679.289,716.355,677.899,709.215,677.781,700.514z"/>
			<path fill-rule="evenodd" clip-rule="evenodd" fill="#FBFBFB" stroke="#020202" stroke-miterlimit="10" d="M758.054,593.356
				c-0.506,16.609-11.012,39.712-34.105,45.982c-12.654,3.436-24.812,8.121-36.527,14.019c-4.618,2.325-9.564,3.821-14.715,4.579
				c-2.191,0.323-3.595-0.148-4.307-2.55c-2.735-9.218-4.918-18.521-5.849-28.126c-0.338-3.49,0.684-5.362,3.849-7.008
				c20.105-10.452,41.378-17.805,63.034-24.168c7.935-2.333,15.928-4.473,23.908-6.649
				C758.158,588.123,758.17,588.166,758.054,593.356z"/>
			<path fill-rule="evenodd" clip-rule="evenodd" fill="#FBFBFB" stroke="#020202" stroke-miterlimit="10" d="M581.823,682.23
				c-4.549,0-9.101-0.089-13.646,0.035c-2.442,0.068-3.422-0.59-3.192-3.277c0.89-10.383,2.002-20.759,1.937-31.199
				c-0.011-1.767,0.702-2.558,2.361-2.981c23.552-6.018,46.874-13.08,71.264-15.221c2.731-0.24,3.695,0.435,4.312,3.146
				c1.14,5.011,2.932,9.868,4.305,14.83c0.827,2.995,1.584,6.037,2.005,9.109c0.879,6.416-1.347,10.564-7.146,13.497
				c-6.256,3.163-13.026,4.757-19.833,6.215C610.218,679.378,596.133,681.459,581.823,682.23z"/>
			<path fill-rule="evenodd" clip-rule="evenodd" fill="#FBFBFB" stroke="#020202" stroke-miterlimit="10" d="M532.853,790.708
				c-6.475,0-12.951-0.053-19.425,0.032c-1.936,0.024-2.802-0.698-3.112-2.596c-2.375-14.548-6.027-28.896-6.523-43.74
				c-0.105-3.154,0.846-4.795,3.847-5.831c10.106-3.489,20.663-4.158,31.15-5.288c7.162-0.771,14.327-1.552,21.242-3.674
				c2.01-0.616,2.895-0.083,3.289,1.881c3.548,17.693,4.374,35.436,1.153,53.279c-0.397,2.2-1.703,2.854-3.673,3.209
				C551.553,789.649,542.209,790.01,532.853,790.708z"/>
			<path fill-rule="evenodd" clip-rule="evenodd" fill="#FBFBFB" stroke="#020202" stroke-miterlimit="10" d="M774.987,594.847
				c0.316-4.378,0.701-9.398,1.026-14.421c0.092-1.398,0.373-2.563,1.796-3.228c14.282-6.661,26.778-16.379,40.645-23.754
				c8.637-4.593,17.676-7.962,27.392-9.483c3.182-0.498,4.21,0.28,4.047,3.673c-1.011,20.997-11.426,36.363-28.259,47.99
				c-13.319,9.201-28.229,15.23-42.983,21.577c-2.647,1.138-2.825-0.573-3.075-2.32C774.65,608.441,774.817,601.968,774.987,594.847
				z"/>
			<path fill-rule="evenodd" clip-rule="evenodd" fill="#FBFBFB" stroke="#020202" stroke-miterlimit="10" d="M459.346,681.213
				c-11.908,0.102-23.738-0.634-35.102-4.622c-5.733-2.012-5.797-2.218-5.314-8.321c0.611-7.732,4.08-14.771,5.451-22.325
				c0.422-2.324,2.424-1.538,3.832-1.328c9.128,1.361,18.238,2.846,27.363,4.23c6.991,1.061,13.985,2.118,21,2.996
				c2.328,0.292,3.366,1.056,3.285,3.564c-0.235,7.31-0.204,14.619-2.524,21.696c-0.953,2.907-2.584,4.307-5.768,4.156
				C467.503,681.068,463.421,681.213,459.346,681.213z"/>
			<path fill-rule="evenodd" clip-rule="evenodd" fill="#FBFBFB" stroke="#020202" stroke-miterlimit="10" d="M521.563,682.241
				c-8.15,0.001-16.302-0.087-24.449,0.05c-2.741,0.047-3.602-0.803-3.189-3.546c1.194-7.942,2.31-15.892,4.474-23.648
				c0.394-1.413,0.733-2.834,2.559-3.039c14.757-1.656,29.286-5.173,44.209-5.465c4.78-0.094,4.789-0.031,4.791,4.641
				c0.005,9.109-0.08,18.219,0.051,27.326c0.039,2.745-0.701,3.808-3.637,3.743C538.106,682.12,529.833,682.238,521.563,682.241z"/>
			<path fill-rule="evenodd" clip-rule="evenodd" fill="#FBFBFB" stroke="#020202" stroke-miterlimit="10" d="M465.649,741.437
				c4.445-0.281,8.839-0.067,13.194,1.006c2.432,0.599,3.888,1.965,4.853,4.279c4.62,11.09,6.269,22.839,7.826,34.604
				c1.181,8.922,1.109,9.075-8.023,9.493c-12.355,0.566-21.375-5.055-27.536-15.553c-5.525-9.414-8.177-19.902-11.201-30.251
				c-0.524-1.793,0.139-2.358,1.874-2.448C452.976,742.238,459.312,741.82,465.649,741.437z"/>
			<path fill-rule="evenodd" clip-rule="evenodd" fill="#FBFBFB" stroke="#020202" stroke-miterlimit="10" d="M819.339,620.877
				c-0.477,3.979-2.116,6.764-3.485,9.611c-8.87,18.444-21.682,34.165-34.515,49.874c-1.443,1.766-2.662,1.613-4.186,0.229
				c-2.609-2.375-4.09-5.379-4.546-8.775c-2.342-17.443,2.21-28.399,15.976-35.938C798.444,630.479,809.08,626.79,819.339,620.877z"
				/>
			<path fill-rule="evenodd" clip-rule="evenodd" fill="#FBFBFB" stroke="#020202" stroke-miterlimit="10" d="M405.097,643.341
				c-0.91,9.763-2.166,19.25-4.54,28.578c-0.712,2.797-2.067,3.723-4.819,3.214c-15.331-2.834-14.664-1.297-18.254-16.499
				c-2.169-9.187-2.134-18.508,0.558-27.74c1.001-3.433,2.869-4.284,6.101-3.528c8.004,1.868,14.339,6.417,19.964,12.168
				C405.247,640.699,405.293,642.081,405.097,643.341z"/>
			<path fill-rule="evenodd" clip-rule="evenodd" fill="#FBFBFB" stroke="#020202" stroke-miterlimit="10" d="M434.183,784.864
				c-6.505-0.457-12.712-2.358-19.001-3.865c-1.366-0.328-2.055-1.077-2.091-2.485c-0.3-11.855-5.286-22.262-10.094-32.733
				c-1.098-2.393-1.966-4.891-2.923-7.347c-0.766-1.965-0.094-2.806,1.962-2.288c3.6,0.906,7.18,1.894,10.77,2.845
				c0.463,0.123,0.938,0.355,1.395,0.327c7.156-0.435,10.167,4.34,12.86,9.857c5.16,10.573,7.659,21.898,9.902,33.319
				C437.448,784.97,435.891,784.993,434.183,784.864z"/>
			<path fill-rule="evenodd" clip-rule="evenodd" fill="#FBFBFB" stroke="#020202" stroke-miterlimit="10" d="M365.947,759.626
				c5.441,0.029,6.53-1.104,6.595-6.746c0.05-4.269-1.348-8.255-2.307-12.333c-0.602-2.56-1.368-5.107-1.278-7.781
				c0.035-1.052-0.355-2.453,0.72-2.981c1.303-0.641,2.123,0.736,2.981,1.472c4.72,4.037,8.213,9.039,11.053,14.501
				c4.502,8.658,7.399,17.938,10.317,27.202c0.445,1.414,0.971,3.068-1.664,2.601c-7.086-1.26-14.205-2.433-20.819-5.447
				c-3.631-1.655-6.92-3.855-9.313-7.147c-0.594-0.817-1.801-1.589-1.103-2.78c0.556-0.947,1.742-0.478,2.659-0.548
				C364.504,759.582,365.228,759.626,365.947,759.626z"/>
			<path fill-rule="evenodd" clip-rule="evenodd" fill="#FBFBFB" stroke="#020202" stroke-miterlimit="10" d="M361.637,630.216
				c-0.175,7.63-1.927,17.531-3.958,27.403c-0.498,2.418-1.596,2.808-3.807,2.062c-5.616-1.889-8.877-5.979-9.237-11.975
				c-0.308-5.132,0.999-9.984,2.669-14.758c2.579-7.37,6.15-14.305,9.456-21.355c0.294-0.626,0.449-1.553,1.281-1.581
				c1.087-0.037,1.156,1.059,1.418,1.786C361.316,616.951,361.739,622.311,361.637,630.216z"/>
			<path fill-rule="evenodd" clip-rule="evenodd" fill="#FBFBFB" stroke="#020202" stroke-miterlimit="10" d="M354.931,755.101
				c-10.482-11.037-13.363-25.346-16.841-39.396C346.962,727.435,351.823,740.891,354.931,755.101z"/>
			<path fill-rule="evenodd" clip-rule="evenodd" fill="#FBFBFB" stroke="#020202" stroke-miterlimit="10" d="M341.872,588.675
				c1.809,4.906,0.29,10.974-3.029,13.415c-0.56,0.412-1.138,1.032-1.885,0.62c-0.796-0.438-0.515-1.271-0.315-1.913
				C337.909,596.734,339.207,592.68,341.872,588.675z"/>
			<path fill-rule="evenodd" clip-rule="evenodd" fill="#FBFBFB" stroke="#020202" stroke-miterlimit="10" d="M430.41,440.244
				c-6.312,3.247-12.786,2.269-19.283,0.453C417.456,438.38,423.934,440.136,430.41,440.244z"/>
			<path fill-rule="evenodd" clip-rule="evenodd" fill="#FBFBFB" stroke="#020202" stroke-miterlimit="10" d="M671.003,437.683
				c0.48,2.225-0.828,3.877-3.585,4.625c-1.155,0.313-2.25,0.853-3.407,1.155c-12.979,3.38-25.106,8.757-36.671,15.487
				c-2.506,1.458-5.221,2.426-8.082,2.923c-2.937,0.511-5.749,0.159-8.313-1.454c-3.684-2.318-3.944-3.469-1.756-7.232
				c7.446-12.806,18.939-20.775,32.071-26.743c7.336-3.334,15.016-5.7,22.775-7.839c2.173-0.6,3.271-0.349,3.674,2.189
				C668.574,426.229,670.709,431.422,671.003,437.683z"/>
			<path fill-rule="evenodd" clip-rule="evenodd" fill="#FBFBFB" stroke="#020202" stroke-miterlimit="10" d="M754.371,445.069
				c-5.167-0.993-10.351-1.966-14.747-5.125c-0.921-0.662-2.217-1.358-1.969-2.74c0.251-1.4,1.504-2.062,2.765-2.55
				c5.291-2.047,14.614,2.891,15.99,8.409C756.905,445.049,756.066,445.436,754.371,445.069z"/>
		</g>
	</g>
</g>
<g id="Layer_21">
	<path fill-rule="evenodd" clip-rule="evenodd" fill="none" stroke="#020202" stroke-miterlimit="10" d="M306.997,602.845
		c0,0-150.935-134.191,57.081-162.873"/>
</g>
<g id="Layer_22">
	<path fill-rule="evenodd" clip-rule="evenodd" fill="none" stroke="#020202" stroke-miterlimit="10" d="M298.866,563.663
		c0,0-46.968-45.338,9.416-86.834"/>
</g>
<g id="Layer_23">
	<path fill-rule="evenodd" clip-rule="evenodd" fill="none" stroke="#020202" stroke-miterlimit="10" d="M872.571,451.972
		c0,0,147.97,21.685,31.699,163.856"/>
</g>
<g id="Layer_20">
	<path fill-rule="evenodd" clip-rule="evenodd" fill="none" stroke="#020202" stroke-miterlimit="10" d="M472.333,828.049
		c0,0,44.011,2.756,64.005-0.979"/>
</g>
<g id="Layer_2">
	<path fill="none" stroke="#020202" stroke-miterlimit="10" d="M452.375,295.211c0,0,37.595-15.075,127.943-14.643
		c0,0,87.015-3.246,88.348-2.932"/>
</g>
<g id="Layer_3">
	<path fill="none" stroke="#020202" stroke-miterlimit="10" d="M669.332,277.965c0,0,127.177-0.026,127.377,0
		s1.064,0.167,1.064,0.167"/>
</g>
<g id="Layer_4">
	<path fill="none" stroke="#020202" stroke-miterlimit="10" d="M798.585,278.277c0,0,36.46,3.863,76.604,84.793"/>
</g>
<g id="Layer_5">
	<path fill="none" stroke="#020202" stroke-miterlimit="10" d="M875.558,363.833c0,0,33.821,73.371,36.632,73.769
		c0,0,28.738,13.794,50.274,52.346"/>
</g>
<g id="Layer_6">
	<path fill="none" stroke="#020202" stroke-miterlimit="10" d="M962.918,490.716c0,0,49.934,62.302-35.992,143.793"/>
</g>
<g id="Layer_7">
	<path fill="none" stroke="#020202" stroke-miterlimit="10" d="M926.926,635.866c0,0-71.576,124.552-90.001,134.593"/>
</g>
<g id="Layer_8">
	<path fill="none" stroke="#020202" stroke-miterlimit="10" d="M836.71,770.662c0,0-61.777,53.169-167.743,102.087"/>
</g>
<g id="Layer_9">
	<path fill="none" stroke="#020202" stroke-miterlimit="10" d="M668.502,873.012c0,0-114.428,63.012-211.799,72.334"/>
</g>
<g id="Layer_10">
	<path fill="none" stroke="#020202" stroke-miterlimit="10" d="M455.319,945.594c0,0-140.296,23.438-172.975-59.41"/>
</g>
<g id="Layer_11">
	<path fill="none" stroke="#020202" stroke-miterlimit="10" d="M281.817,885.006c0,0-18.789-72.38,0-257.896"/>
</g>
<g id="Layer_12">
	<path fill="none" stroke="#020202" stroke-miterlimit="10" d="M282.134,624.822c0,0-91.603-135.616,10.214-195.51"/>
</g>
<g id="Layer_13">
	<path fill="none" stroke="#020202" stroke-miterlimit="10" d="M293.991,426.646c0,0-3.818-127.452,155.314-131.434"/>
</g>
<g id="Layer_14">
	<path fill="none" stroke="#020202" stroke-miterlimit="10" d="M452.017,301.336c0,0,136.198-4.919,160.116-10.418
		c0,0,120.65-19.317,206.259,79.883"/>
</g>
<g id="Layer_15">
	<path fill="none" stroke="#020202" stroke-miterlimit="10" d="M381.464,328.701c0,0,191.665-0.018,223.101-14.359
		c0,0,117.541-15.709,194.988,74.975"/>
</g>
<g id="Layer_16">
	<path fill="none" stroke="#020202" stroke-miterlimit="10" d="M374.915,389.316c0,0,14.864-63.772,126.975-29.044"/>
</g>
<g id="Layer_17">
	<path fill="none" stroke="#020202" stroke-miterlimit="10" d="M606.148,341.765c0,0,124.418-22.899,172.635,58.168"/>
</g>
<g id="Layer_18">
	<path fill="none" stroke="#020202" stroke-miterlimit="10" d="M348.491,812.206c0,0,148.683,124.962,429.596-51.122"/>
</g>
<g id="Layer_19">
	<path fill="none" stroke="#020202" stroke-miterlimit="10" d="M313.842,827.731c0,0,68.671,169.401,507.915-63.665"/>
</g>
</svg>
